<?xml version="1.0" standalone="no"?>
<!DOCTYPE svg PUBLIC "-//W3C//DTD SVG 20010904//EN"
 "http://www.w3.org/TR/2001/REC-SVG-20010904/DTD/svg10.dtd">
<svg version="1.0" xmlns="http://www.w3.org/2000/svg"
 width="100.000000pt" height="100.000000pt" viewBox="0 0 100.000000 100.000000"
 preserveAspectRatio="xMidYMid meet">
<metadata>
Created by potrace 1.14, written by Peter Selinger 2001-2017
</metadata>
<g transform="translate(0.000000,100.000000) scale(0.100000,-0.100000)"
fill="#000000" stroke="none">
<path d="M93 750 c-28 -11 -46 -46 -39 -74 3 -12 24 -32 46 -45 57 -32 47 -55
-16 -36 -15 5 -23 1 -28 -11 -9 -22 4 -34 46 -43 42 -10 84 10 92 44 9 35 -8
62 -51 83 -45 21 -40 38 10 34 31 -2 37 1 37 17 0 11 -5 23 -11 26 -18 12 -63
14 -86 5z"/>
<path d="M229 748 c-1 -2 -3 -47 -4 -101 -2 -77 0 -100 11 -104 24 -9 41 15
38 52 -1 22 4 41 13 51 22 21 35 5 38 -48 3 -60 3 -58 25 -58 21 0 22 5 23 89
0 56 -29 86 -69 71 -34 -13 -33 -14 -31 18 2 21 -3 28 -20 30 -13 2 -24 2 -24
0z"/>
<path d="M454 738 c-16 -25 -57 -143 -58 -168 -1 -35 30 -39 45 -6 17 36 65
36 81 1 11 -24 41 -34 52 -17 2 4 -10 50 -28 102 -29 84 -36 95 -59 98 -14 2
-29 -3 -33 -10z m40 -80 c5 -21 3 -28 -9 -28 -16 0 -19 17 -9 45 8 19 9 18 18
-17z"/>
<path d="M597 743 c-2 -5 -4 -51 -3 -103 1 -90 2 -95 24 -98 22 -3 25 3 25 51
0 28 24 19 46 -18 13 -22 28 -35 41 -35 24 0 25 16 4 58 -14 28 -14 33 1 56
19 28 12 63 -14 83 -17 13 -117 18 -124 6z m82 -42 c19 -12 6 -41 -19 -41 -21
0 -24 8 -14 34 7 18 13 19 33 7z"/>
<path d="M782 648 l3 -103 63 -3 c61 -3 62 -3 62 23 0 19 -5 26 -17 24 -47 -4
-63 1 -63 22 0 15 4 19 16 15 22 -8 54 11 48 29 -4 9 -19 15 -35 15 -22 0 -29
5 -29 19 0 15 6 19 28 17 37 -4 52 3 52 25 0 17 -8 19 -65 19 l-66 0 3 -102z"/>
<path d="M824 478 c-50 -27 -58 -75 -18 -114 56 -57 142 15 104 86 -13 25 -61
41 -86 28z"/>
<path d="M72 471 c-8 -5 -12 -17 -10 -27 4 -20 35 -26 56 -11 8 6 12 6 12 -2
0 -6 4 -11 9 -11 5 0 7 10 4 23 l-5 22 16 -23 c14 -17 21 -20 36 -12 13 7 20
6 23 -3 4 -9 8 -8 16 3 8 11 11 12 11 2 0 -19 17 -6 23 19 4 15 2 19 -8 15 -8
-3 -16 0 -19 7 -2 7 -5 3 -6 -8 0 -17 -2 -17 -10 -5 -12 21 -101 20 -109 -1
-3 -8 -14 -15 -23 -17 -12 -2 -16 2 -12 13 3 8 10 12 15 9 5 -3 9 0 9 5 0 13
-10 14 -28 2z m118 -22 c0 -5 -4 -9 -10 -9 -5 0 -10 7 -10 16 0 8 5 12 10 9 6
-3 10 -10 10 -16z"/>
<path d="M277 467 c-11 -29 -9 -53 4 -40 6 6 9 21 7 34 -3 21 -4 22 -11 6z"/>
<path d="M331 473 c-1 -7 -8 -10 -16 -7 -11 5 -15 -1 -14 -22 0 -16 3 -23 6
-16 4 10 8 10 19 1 11 -9 14 -8 14 7 1 18 1 18 11 2 12 -22 39 -24 39 -3 0 8
-5 15 -11 15 -5 0 -7 -5 -3 -12 4 -7 3 -8 -4 -4 -17 10 -15 26 4 26 8 0 12 5
9 10 -4 7 -12 7 -25 0 -13 -7 -20 -6 -23 3 -4 9 -6 9 -6 0z"/>
<path d="M73 393 c-18 -7 -16 -40 3 -47 8 -3 24 -2 33 4 10 5 21 6 25 3 11
-11 71 -11 79 1 5 8 10 6 17 -4 5 -8 10 -13 11 -10 0 3 2 16 5 29 3 18 1 22
-11 17 -8 -3 -15 -1 -15 5 0 20 -20 -3 -21 -24 0 -14 -2 -17 -6 -7 -14 44 -15
45 -29 15 l-13 -30 -1 30 c-1 29 -1 29 -15 11 -11 -15 -15 -16 -15 -5 0 15
-24 21 -47 12z m33 -14 c7 -12 -15 -31 -28 -23 -9 6 1 34 12 34 5 0 12 -5 16
-11z"/>
<path d="M257 381 c-7 -28 4 -37 47 -38 22 -1 35 2 30 5 -15 11 -16 35 -2 43
10 7 9 9 -4 9 -16 0 -23 -11 -19 -33 1 -5 -4 -5 -10 -1 -6 3 -15 0 -20 -7 -6
-10 -9 -8 -9 9 0 13 4 20 10 17 6 -3 10 -1 10 4 0 19 -27 12 -33 -8z"/>
<path d="M744 343 c-12 -2 -26 -15 -32 -28 -16 -35 14 -71 51 -61 56 14 38 98
-19 89z"/>
<path d="M58 297 c-5 -24 -2 -27 21 -28 14 0 41 -2 59 -3 17 -2 32 1 32 6 0 6
6 6 14 -1 11 -10 14 -7 12 14 0 15 -6 23 -13 21 -6 -3 -14 0 -17 7 -2 7 -5 1
-6 -13 l-1 -25 -11 25 -10 25 -14 -30 c-11 -26 -13 -27 -14 -8 0 26 -20 42
-20 17 0 -16 -1 -16 -14 1 -12 17 -13 17 -18 -8z"/>
<path d="M207 308 c-9 -30 5 -46 39 -45 28 2 34 6 34 24 0 21 -16 40 -26 30
-3 -3 -7 -13 -8 -23 -2 -10 -7 -19 -13 -21 -6 -2 -8 7 -6 22 5 25 -12 36 -20
13z"/>
<path d="M293 290 c2 -29 11 -38 21 -22 7 12 -4 52 -15 52 -4 0 -7 -13 -6 -30z"/>
<path d="M614 275 c-8 -21 2 -45 19 -45 8 0 20 7 27 15 10 12 10 18 0 30 -7 8
-19 15 -27 15 -7 0 -16 -7 -19 -15z"/>
</g>
</svg>
